HIERARCHY
ROOT joint_Root
{
	OFFSET 0.0 0.0 0.0
	CHANNELS 6 Xposition Yposition Zposition Zrotation Xrotation Yrotation 
	JOINT Hips
	{
		OFFSET -0.726466 93.3139 -2.00062
		CHANNELS 6 Xposition Yposition Zposition Zrotation Xrotation Yrotation 
		JOINT Spine
		{
			OFFSET 15.7357 0.0 0.0
			CHANNELS 6 Xposition Yposition Zposition Zrotation Xrotation Yrotation 
			JOINT Chest
			{
				OFFSET 8.98455 -0.406207 0.0
				CHANNELS 6 Xposition Yposition Zposition Zrotation Xrotation Yrotation 
				JOINT Neck
				{
					OFFSET 16.3773 0.0 0.0
					CHANNELS 6 Xposition Yposition Zposition Zrotation Xrotation Yrotation 
					JOINT Head
					{
						OFFSET 6.45672 0.0 0.0
						CHANNELS 6 Xposition Yposition Zposition Zrotation Xrotation Yrotation 
						End Site
						{
							OFFSET 0.0 0.0 0.0
						}
					}
				}
				JOINT Shoulder_L
				{
					OFFSET 12.9942 -0.242716 4.98039
					CHANNELS 6 Xposition Yposition Zposition Zrotation Xrotation Yrotation 
					JOINT UpperArm_L
					{
						OFFSET 5.34809 0.0 0.0
						CHANNELS 6 Xposition Yposition Zposition Zrotation Xrotation Yrotation 
						JOINT LowerArm_L
						{
							OFFSET 24.3286 1.87007e-05 0.0
							CHANNELS 6 Xposition Yposition Zposition Zrotation Xrotation Yrotation 
							JOINT Hand_L
							{
								OFFSET 22.2916 0.0 0.0
								CHANNELS 6 Xposition Yposition Zposition Zrotation Xrotation Yrotation 
								End Site
								{
									OFFSET 0.0 0.0 0.0
								}
							}
						}
					}
				}
				JOINT Shoulder_R
				{
					OFFSET 12.9945 -0.242716 -4.98039
					CHANNELS 6 Xposition Yposition Zposition Zrotation Xrotation Yrotation 
					JOINT UpperArm_R
					{
						OFFSET -5.34813 0.0 0.0
						CHANNELS 6 Xposition Yposition Zposition Zrotation Xrotation Yrotation 
						JOINT LowerArm_R
						{
							OFFSET -24.3289 0.000322201 0.0
							CHANNELS 6 Xposition Yposition Zposition Zrotation Xrotation Yrotation 
							JOINT Hand_R
							{
								OFFSET -22.2915 -0.000108084 0.0
								CHANNELS 6 Xposition Yposition Zposition Zrotation Xrotation Yrotation 
								End Site
								{
									OFFSET 0.0 0.0 0.0
								}
							}
						}
					}
				}
			}
		}
		JOINT UpperLeg_L
		{
			OFFSET -2.19248 -6.46944 0.0
			CHANNELS 6 Xposition Yposition Zposition Zrotation Xrotation Yrotation 
			JOINT LowerLeg_L
			{
				OFFSET 39.0811 0.0 -1.23785e-05
				CHANNELS 6 Xposition Yposition Zposition Zrotation Xrotation Yrotation 
				JOINT Foot_L
				{
					OFFSET 40.9854 0.0 -1.26872e-05
					CHANNELS 6 Xposition Yposition Zposition Zrotation Xrotation Yrotation 
					JOINT Toes_L
					{
						OFFSET 11.7543 0.0 0.0
						CHANNELS 6 Xposition Yposition Zposition Zrotation Xrotation Yrotation 
						End Site
						{
							OFFSET 0.0 0.0 0.0
						}
					}
				}
			}
		}
		JOINT UpperLeg_R
		{
			OFFSET -2.19251 6.46944 0.0
			CHANNELS 6 Xposition Yposition Zposition Zrotation Xrotation Yrotation 
			JOINT LowerLeg_R
			{
				OFFSET -39.0811 -0.00228153 -0.0401928
				CHANNELS 6 Xposition Yposition Zposition Zrotation Xrotation Yrotation 
				JOINT Foot_R
				{
					OFFSET -40.9854 0.0 0.0
					CHANNELS 6 Xposition Yposition Zposition Zrotation Xrotation Yrotation 
					JOINT Toes_R
					{
						OFFSET -11.7543 0.0 0.0
						CHANNELS 6 Xposition Yposition Zposition Zrotation Xrotation Yrotation 
						End Site
						{
							OFFSET 0.0 0.0 0.0
						}
					}
				}
			}
		}
	}
}
MOTION
Frames:	9
Frame Time:	0.0333333
0.000000 0.000000 0.000000 0.000000 0.000000 -0.000000 96.397300 90.683400 -121.247000 87.140000 6.744630 0.809892 15.735700 0.000005 -0.000001 76.015900 82.724700 -74.998600 8.984550 -0.406207 -0.000000 6.394710 -3.518010 2.229460 16.377300 -0.000001 -0.000001 1.097230 -4.168660 1.460840 6.456720 -0.000001 -0.000000 2.027680 -2.434450 -2.332290 12.994200 -0.242716 4.980390 -89.441900 -2.019650 -74.548600 5.348090 -0.000007 -0.000001 -48.035300 31.775000 -56.910400 24.328600 0.000019 0.000005 2.453700 2.425420 -45.356700 22.291600 -0.000001 0.000005 12.572400 5.569060 -9.636760 12.994500 -0.242716 -4.980390 88.109100 5.921690 -72.255500 -5.348130 -0.000001 -0.000004 -72.439400 19.237000 1.863720 -24.328900 0.000322 -0.000009 1.483890 16.525500 -5.207220 -22.291500 -0.000108 -0.000004 10.389900 5.270440 0.886366 -2.192480 -6.469440 -0.000000 -176.610000 -0.309410 6.396620 39.081100 -0.000007 -0.000012 -0.012849 0.036205 19.539100 40.985400 -0.000006 -0.000013 5.566570 0.694401 -73.906700 11.754300 -0.000000 0.000003 -0.928260 -1.147660 -16.974800 -2.192510 6.469440 -0.000001 179.785000 11.829100 155.798000 -39.081100 -0.002282 -0.040193 0.020941 -0.095380 10.456700 -40.985400 0.000008 0.000006 -7.984810 2.744540 -49.224600 -11.754300 -0.000006 -0.000006 -0.018904 -0.161141 -23.154700
0.000000 0.000000 0.000000 0.000000 0.000000 -0.000000 95.901900 90.063700 -117.248000 87.331300 7.423430 0.843190 15.735700 0.000005 -0.000001 73.661100 82.732900 -72.611500 8.984550 -0.406207 -0.000000 6.231970 -4.091300 2.320300 16.377300 -0.000001 -0.000001 1.278810 -4.334750 1.442320 6.456720 -0.000001 -0.000000 1.975880 -2.511370 -2.334780 12.994200 -0.242716 4.980390 -89.402200 -2.195270 -74.761500 5.348090 -0.000007 -0.000001 -48.849100 28.587500 -58.393900 24.328600 0.000019 0.000005 2.343930 2.253610 -46.148500 22.291600 -0.000001 0.000005 14.061800 5.573090 -9.845350 12.994500 -0.242716 -4.980390 88.033500 6.116890 -72.139500 -5.348130 -0.000001 -0.000004 -72.032000 19.650300 2.867570 -24.328900 0.000322 -0.000009 1.416930 16.653800 -4.936550 -22.291500 -0.000108 -0.000004 10.403300 5.273950 0.791267 -2.192480 -6.469440 -0.000000 -175.439000 -1.514000 8.566910 39.081100 -0.000007 -0.000012 -0.013082 0.035263 20.354400 40.985400 -0.000006 -0.000013 4.877600 2.760370 -74.184500 11.754300 -0.000000 0.000003 -0.833967 -1.014680 -17.982000 -2.192510 6.469440 -0.000001 -177.690000 15.148400 155.258000 -39.081100 -0.002282 -0.040193 0.011114 -0.066387 6.675150 -40.985400 0.000008 0.000006 -8.483380 1.985180 -50.070000 -11.754300 -0.000006 -0.000006 -0.018788 -0.160483 -23.127600
0.000000 0.000000 0.000000 0.000000 0.000000 -0.000000 95.233400 89.441100 -112.562000 87.484400 8.245880 0.928178 15.735700 0.000005 -0.000001 70.559100 82.873300 -69.466300 8.984550 -0.406207 -0.000000 5.736440 -4.751660 2.422280 16.377300 -0.000001 -0.000001 1.625240 -4.440770 1.376850 6.456720 -0.000001 -0.000000 2.493480 -2.535710 -2.401700 12.994200 -0.242716 4.980390 -89.359800 -2.347250 -74.739900 5.348090 -0.000007 -0.000001 -50.682500 26.525300 -57.939500 24.328600 0.000019 0.000005 2.111910 2.002780 -46.537000 22.291600 -0.000001 0.000005 15.358100 5.578160 -10.114000 12.994500 -0.242716 -4.980390 87.901500 6.346540 -71.661200 -5.348130 -0.000001 -0.000004 -71.729900 20.254100 3.325000 -24.328900 0.000322 -0.000009 1.295570 17.264200 -4.361370 -22.291500 -0.000108 -0.000004 10.430700 5.266720 0.986772 -2.192480 -6.469440 -0.000000 -173.903000 -2.058610 10.482800 39.081100 -0.000007 -0.000012 -0.013679 0.033444 22.245500 40.985400 -0.000006 -0.000013 4.063230 5.003230 -73.479300 11.754300 -0.000000 0.000003 -0.010119 -0.104538 -20.836200 -2.192510 6.469440 -0.000001 -175.395000 17.322000 154.825000 -39.081100 -0.002282 -0.040193 0.013183 -0.070090 7.992350 -40.985400 0.000008 0.000006 -7.309910 -2.179430 -52.469300 -11.754300 -0.000006 -0.000006 -0.018867 -0.160930 -23.146000
0.000000 0.000000 0.000000 0.000000 0.000000 -0.000000 94.435000 89.041800 -107.450000 86.774500 8.750710 0.874012 15.735700 0.000005 -0.000001 67.785400 83.266000 -66.362700 8.984550 -0.406207 -0.000000 4.782790 -5.119440 3.057600 16.377300 -0.000001 -0.000001 2.170650 -4.493500 1.261260 6.456720 -0.000001 -0.000000 3.152970 -2.394070 -2.644990 12.994200 -0.242716 4.980390 -89.400300 -2.177060 -74.595700 5.348090 -0.000007 -0.000001 -52.809700 25.612000 -55.361400 24.328600 0.000019 0.000005 1.805820 1.672900 -47.202600 22.291600 -0.000001 0.000005 16.084300 5.578880 -10.151400 12.994500 -0.242716 -4.980390 87.681200 6.800510 -71.121900 -5.348130 -0.000001 -0.000004 -71.326800 19.934000 3.491460 -24.328900 0.000322 -0.000009 1.229710 17.934800 -3.990890 -22.291500 -0.000108 -0.000004 10.568800 5.256940 1.248880 -2.192480 -6.469440 -0.000000 -171.266000 -2.597640 11.436800 39.081100 -0.000007 -0.000012 -0.011687 0.024575 25.434200 40.985400 -0.000006 -0.000013 2.917510 7.516870 -70.869800 11.754300 -0.000000 0.000003 -0.039434 -0.257860 -27.167700 -2.192510 6.469440 -0.000001 -172.646000 16.915100 152.213000 -39.081100 -0.002282 -0.040193 0.007732 -0.015104 16.255000 -40.985400 0.000008 0.000006 3.644210 -3.013940 -53.298200 -11.754300 -0.000006 -0.000006 -0.023312 -0.184986 -24.137800
0.000000 0.000000 0.000000 0.000000 0.000000 -0.000000 93.555400 88.926600 -101.910000 85.113800 9.139560 1.105420 15.735700 0.000005 -0.000001 65.752300 83.728800 -63.633200 8.984550 -0.406207 -0.000000 3.783040 -5.217700 4.408140 16.377300 -0.000001 -0.000001 2.564360 -4.510310 1.163310 6.456720 -0.000001 -0.000000 3.843430 -2.208470 -3.432690 12.994200 -0.242716 4.980390 -89.646400 -1.272990 -74.471300 5.348090 -0.000007 -0.000001 -54.196400 25.741700 -51.212700 24.328600 0.000019 0.000005 1.316610 1.187890 -47.950500 22.291600 -0.000001 0.000005 16.274600 5.581610 -10.298600 12.994500 -0.242716 -4.980390 87.425500 7.344350 -70.621400 -5.348130 -0.000001 -0.000004 -70.831300 18.748800 3.625010 -24.328900 0.000322 -0.000009 1.353470 17.944700 -4.388680 -22.291500 -0.000108 -0.000004 10.494300 5.252620 1.362570 -2.192480 -6.469440 -0.000000 -167.782000 -2.836370 11.400200 39.081100 -0.000007 -0.000012 0.006661 -0.011518 30.039600 40.985400 -0.000006 -0.000013 2.031890 9.340260 -64.928200 11.754300 -0.000000 0.000003 -0.119860 -0.491390 -37.193900 -2.192510 6.469440 -0.000001 -172.432000 11.516500 152.402000 -39.081100 -0.002282 -0.040193 0.024498 -0.054302 21.306800 -40.985400 0.000008 0.000006 4.028000 -4.547110 -47.677800 -11.754300 -0.000006 -0.000006 -0.023724 -0.187105 -24.225300
0.000000 0.000000 0.000000 0.000000 0.000000 -0.000000 92.964500 88.939900 -96.269700 84.640100 8.810330 2.556580 15.735700 0.000005 -0.000001 66.606400 83.770700 -64.193000 8.984550 -0.406207 -0.000000 3.791100 -5.023700 4.990320 16.377300 -0.000001 -0.000001 2.507160 -4.270640 1.079910 6.456720 -0.000001 -0.000000 4.352210 -2.004540 -4.353620 12.994200 -0.242716 4.980390 -89.795200 -0.719815 -74.117300 5.348090 -0.000007 -0.000001 -56.196800 26.612900 -45.883800 24.328600 0.000019 0.000005 1.160770 1.036140 -48.251100 22.291600 -0.000001 0.000005 16.114800 5.587760 -10.636800 12.994500 -0.242716 -4.980390 87.387300 7.416150 -70.529900 -5.348130 -0.000001 -0.000004 -70.838400 18.265200 2.975930 -24.328900 0.000322 -0.000009 1.469110 16.779300 -5.080680 -22.291500 -0.000108 -0.000004 9.837200 5.264230 1.054240 -2.192480 -6.469440 -0.000000 -166.733000 -2.466740 10.370200 39.081100 -0.000007 -0.000012 0.052325 -0.067863 37.633000 40.985400 -0.000006 -0.000013 2.768660 8.261000 -55.335800 11.754300 -0.000000 0.000003 -0.201242 -0.647174 -44.324500 -2.192510 6.469440 -0.000001 -172.619000 7.348300 153.816000 -39.081100 -0.002282 -0.040193 0.029766 -0.048987 28.375800 -40.985400 0.000008 0.000006 5.785340 -7.339410 -50.752600 -11.754300 -0.000006 -0.000006 -0.014139 -0.132328 -21.970800
0.000000 0.000000 0.000000 0.000000 0.000000 -0.000000 92.528600 89.171500 -91.191300 84.094700 8.286000 4.391730 15.735700 0.000005 -0.000001 69.659700 83.428700 -66.902400 8.984550 -0.406207 -0.000000 4.687080 -4.634090 5.700540 16.377300 -0.000001 -0.000001 2.010980 -4.004620 1.105850 6.456720 -0.000001 -0.000000 4.182040 -1.910450 -4.863840 12.994200 -0.242716 4.980390 -89.853000 -0.511521 -73.967000 5.348090 -0.000007 -0.000001 -58.796100 27.603400 -40.380100 24.328600 0.000019 0.000005 1.100330 1.022550 -47.097500 22.291600 -0.000001 0.000005 15.801500 5.593750 -10.975900 12.994500 -0.242716 -4.980390 87.485100 7.299540 -70.930500 -5.348130 -0.000001 -0.000004 -70.812300 19.463000 0.672918 -24.328900 0.000322 -0.000009 1.617600 15.349800 -6.094080 -22.291500 -0.000108 -0.000004 8.844100 5.274980 0.763810 -2.192480 -6.469440 -0.000000 -166.424000 -1.591830 6.825790 39.081100 -0.000007 -0.000012 0.095600 -0.086808 47.758400 40.985400 -0.000006 -0.000013 2.860170 4.781530 -43.785100 11.754300 -0.000000 0.000003 -0.087687 -0.412933 -33.755500 -2.192510 6.469440 -0.000001 -171.514000 8.972790 157.167000 -39.081100 -0.002282 -0.040193 0.061597 -0.091978 32.368700 -40.985400 0.000008 0.000006 7.315870 -5.965180 -56.196900 -11.754300 -0.000006 -0.000006 -0.010085 -0.104273 -20.821600
0.000000 0.000000 0.000000 0.000000 0.000000 -0.000000 92.063100 89.386800 -87.054900 83.669500 8.348180 4.766710 15.735700 0.000005 -0.000001 72.483200 83.411500 -69.482000 8.984550 -0.406207 -0.000000 4.922550 -4.032730 6.171050 16.377300 -0.000001 -0.000001 1.565450 -4.410470 1.338530 6.456720 -0.000001 -0.000000 3.736930 -2.276520 -4.445420 12.994200 -0.242716 4.980390 -89.865300 -0.479751 -74.311800 5.348090 -0.000007 -0.000001 -60.993500 29.270300 -36.016000 24.328600 0.000019 0.000005 0.548368 0.582278 -43.221300 22.291600 -0.000001 0.000005 15.334900 5.591530 -10.847000 12.994500 -0.242716 -4.980390 87.391000 7.597280 -70.982800 -5.348130 -0.000001 -0.000004 -69.909700 22.111300 -2.800480 -24.328900 0.000322 -0.000009 1.904350 14.149700 -7.750410 -22.291500 -0.000108 -0.000004 8.197640 5.283990 0.516750 -2.192480 -6.469440 -0.000000 -166.716000 -0.688500 0.040435 39.081100 -0.000007 -0.000012 0.102482 -0.064370 57.864900 40.985400 -0.000006 -0.000013 4.080320 -0.713058 -33.989100 11.754300 -0.000000 0.000003 -0.008540 -0.092398 -20.339900 -2.192510 6.469440 -0.000001 -170.709000 10.751100 159.877000 -39.081100 -0.002282 -0.040193 0.077121 -0.110937 33.643200 -40.985400 0.000008 0.000006 7.798590 -5.003990 -60.315000 -11.754300 -0.000006 -0.000006 -0.009864 -0.102616 -20.753900
0.000000 0.000000 0.000000 0.000000 0.000000 -0.000000 91.813400 90.025600 -83.093400 83.939200 7.477680 4.736930 15.735700 0.000005 -0.000001 78.205900 83.594700 -75.325200 8.984550 -0.406207 -0.000000 4.852450 -2.686510 5.869530 16.377300 -0.000001 -0.000001 1.588980 -4.690470 1.745860 6.456720 -0.000001 -0.000000 3.631250 -3.026130 -3.472960 12.994200 -0.242716 4.980390 -89.819700 -0.637466 -74.207300 5.348090 -0.000007 -0.000001 -62.354200 32.125500 -33.120100 24.328600 0.000019 0.000005 0.105596 0.145193 -36.214200 22.291600 -0.000001 0.000005 13.714600 5.575610 -9.954160 12.994500 -0.242716 -4.980390 87.267300 8.075950 -71.234200 -5.348130 -0.000001 -0.000004 -68.261400 25.050000 -6.556030 -24.328900 0.000322 -0.000009 2.407230 13.637000 -10.114600 -22.291500 -0.000108 -0.000004 8.509280 5.303600 -0.029146 -2.192480 -6.469440 -0.000000 -167.765000 -1.767780 -5.624130 39.081100 -0.000007 -0.000012 0.064449 -0.029066 65.721000 40.985400 -0.000006 -0.000013 6.744870 -5.959720 -38.996300 11.754300 -0.000000 0.000003 -0.009841 -0.102454 -20.751000 -2.192510 6.469440 -0.000001 -170.845000 10.801900 163.724000 -39.081100 -0.002282 -0.040193 0.072488 -0.110234 32.115300 -40.985400 0.000008 0.000006 7.852450 -4.525980 -62.603300 -11.754300 -0.000006 -0.000006 -0.009832 -0.102378 -20.744100
